<?xml version="1.0" encoding="UTF-8"?>
<svg id="Laag_3" data-name="Laag 3" xmlns="http://www.w3.org/2000/svg" viewBox="0 0 1601.20307 406.90805">
  <defs>
    <style>
      .cls-1 {
        fill: #ff0;
      }
    </style>
  </defs>
  <path class="cls-1" d="M1528.06148,402.27327c6.68658-8.42821,72.1079-195.1043,71.79126-194.49122s3.19078-6.0714,0-15.16122c-3.18994-9.08882-71.79126-188.12439-71.79126-188.12439,0,0-3.23238-6.99338-6.1666-3.46533-2.93506,3.52706-2.14092,11.49002-2.1989,13.22943s-.3621,380.92845,.08904,383.77637c.15574,2.80357,1.58988,12.66457,8.27646,4.23635Z"/>
  <path class="cls-1" d="M7.12696,406.90805c-3.83707,0-7.12696-3.79822-7.12696-8.13784V5.44459C0,2.73128,2.19326,.02007,4.9337,.02007H98.69678c3.83935,0,6.57979,2.16981,6.57979,5.42453V399.85512c0,3.25472-2.74044,7.05294-6.57979,7.05294H7.12696Z"/>
  <path class="cls-1" d="M127.20234,7.0709c0-3.79612,2.74272-7.05083,6.03033-7.05083h92.66645c3.83707,0,6.57979,2.16981,7.67642,6.50943l32.89893,122.06555c1.09663,4.34173,2.74044,6.51154,3.83935,6.51154,1.64381,0,3.28761-2.16981,3.28761-7.05294V7.0709c0-3.79612,2.74272-7.05083,6.57979-7.05083h82.24959c4.38652,0,7.12696,3.79612,7.12696,7.59434V399.85512c0,3.79822-2.19326,7.05294-6.03261,7.05294h-102.53384c-2.19326,0-5.48315-2.16981-6.03033-5.42453l-24.12588-97.65413c-1.09891-5.42453-3.29217-7.59434-4.93598-7.59434s-2.74272,2.16981-2.74272,7.59434v96.02572c0,3.79822-3.28761,7.05294-7.12696,7.05294h-83.34394c-3.28989,0-5.48315-3.25472-5.48315-7.59434V7.0709Z"/>
  <path class="cls-1" d="M501.14434,294.60665c-.54718-2.71332-1.64609-3.79822-2.74044-3.79822-1.09891,0-1.64609,1.62841-1.64609,4.34173v104.70496c0,3.25472-3.28989,7.05294-7.12696,7.05294h-91.56982c-3.28989,0-6.57979-3.79822-6.57979-8.13784V5.44459c0-2.71332,2.19326-5.42453,4.9337-5.42453h93.2159c4.38652,0,7.12696,2.16981,7.12696,5.42453V99.8419c0,2.16981,.54718,3.79822,1.64609,3.79822,1.09435,0,2.19326-1.08491,3.28761-3.79822l21.38544-94.94081c1.09663-2.71121,3.28989-4.88102,6.03261-4.88102h96.50351c2.19326,0,3.83707,1.6263,3.83707,4.33962,0,1.08491,0,2.16981-.54946,3.25472l-69.63492,179.57397c-1.09663,2.16981-1.64381,5.96803-1.64381,7.05294s.54718,4.33962,1.09435,5.96803l85.83046,201.27418c1.09663,3.25472,0,5.42453-3.28989,5.42453h-114.89004c-2.19326,0-3.83707-1.62841-4.38652-4.33962l-20.83599-107.96178Z"/>
  <path class="cls-1" d="M742.39172,.02007c3.28989,0,6.03033,2.16981,6.03033,5.96593V281.58568c0,7.05294,2.74272,11.93607,9.3225,11.93607s9.3225-4.88313,9.3225-11.39256V5.44459c0-2.71332,2.74044-5.42453,6.03033-5.42453h92.66645c2.74044,0,6.03033,1.6263,6.03033,5.42453V296.23506c0,57.50631-41.67197,110.67299-114.04961,110.67299-72.92709,0-114.04961-53.71019-114.04961-110.67299V5.98599c0-3.79612,2.19326-5.96593,5.48315-5.96593h93.21362Z"/>
  <path class="cls-1" d="M893.71766,6.5295c0-3.79822,2.19326-6.50943,6.03033-6.50943h101.98895c71.27873,0,111.85635,52.62318,111.85635,97.65202,0,32.55138-.54946,82.46335-55.93045,99.28043v1.08491c34.54501,12.47957,57.57426,48.82706,57.57426,91.1447,0,27.66825-.54946,117.72593-114.04961,117.72593h-101.98667c-3.83935,0-5.48315-2.71332-5.48315-5.96803V6.5295Zm98.14732,146.47909c0,2.17192,1.64609,3.79822,3.83935,3.79822,7.67642,0,15.90001-4.88313,15.90001-15.73218v-46.65725c0-9.76626-9.32022-14.10588-15.90001-14.10588-2.19326,0-3.83935,1.08491-3.83935,3.25472v69.44237Zm0,168.72491c0,2.16981,1.09891,3.79612,3.83935,3.79612,8.77305,0,16.44946-6.50943,16.44946-15.73218v-56.96491c0-9.22275-8.22359-14.64728-16.99664-14.64728-2.19326,0-3.29217,1.6263-3.29217,4.33962v79.20863Z"/>
  <path class="cls-1" d="M1140.9931,406.90805c-3.83707,0-7.12696-3.79822-7.12696-8.13784V5.44459c0-2.71332,2.19326-5.42453,4.9337-5.42453h93.76308c3.83935,0,6.57979,2.16981,6.57979,5.42453V399.85512c0,3.25472-2.74044,7.05294-6.57979,7.05294h-91.56982Z"/>
  <path class="cls-1" d="M1405.90129,131.45793c-3.26483,0-5.44289-1.61503-6.53419-5.92667-3.26483-12.92864-8.71225-19.39506-16.3332-19.39506-5.44742,0-8.16886,4.30955-8.16886,9.69857,0,17.24028,25.59336,36.63534,58.26429,58.7249,35.39238,23.7046,62.0725,62.49471,62.0725,102.3643,0,72.19329-43.56124,129.8408-114.89164,129.8408-82.76636,0-120.88244-59.26464-120.88244-145.46605,0-2.69242,2.17806-5.38693,6.53419-5.38693l75.14314-3.7719c3.81048,0,5.98854,2.15477,6.53419,7.00406,2.17806,21.54983,11.43596,44.71678,24.50433,44.71678,7.62095,0,12.52272-4.84929,12.52272-17.24028,0-12.93073-30.49287-36.63534-66.97427-65.72897-36.48367-29.09154-54.45155-69.49877-54.45155-106.13411,0-54.9551,41.38318-114.75739,114.34599-114.75739,72.96734,0,118.161,56.57013,118.161,120.68406,0,3.76981-2.17806,7.00197-6.53419,7.00197l-83.312,3.7719Z"/>
</svg>